<svg id="Capa_1" xmlns="http://www.w3.org/2000/svg" xmlns:xlink="http://www.w3.org/1999/xlink" viewBox="0 0 2080 515"><style>.st0{clip-path:url(#SVGID_2_);} .st1{clip-path:url(#SVGID_4_);fill:#1885D6;} .st2{clip-path:url(#SVGID_6_);} .st3{fill:#007EC0;} .st4{clip-path:url(#SVGID_8_);} .st5{opacity:0.6;clip-path:url(#SVGID_10_);fill:#cee5f5;} .st6{clip-path:url(#SVGID_12_);} .st7{opacity:0.6;clip-path:url(#SVGID_14_);fill:#cee5f5;} .st8{clip-path:url(#SVGID_16_);} .st9{clip-path:url(#SVGID_18_);fill:#FFFFFF;} .st10{clip-path:url(#SVGID_20_);} .st11{clip-path:url(#SVGID_22_);fill:#FFFFFF;} .st12{clip-path:url(#SVGID_24_);} .st13{opacity:0.6;clip-path:url(#SVGID_26_);fill:#cee5f5;} .st14{clip-path:url(#SVGID_28_);} .st15{opacity:0.6;clip-path:url(#SVGID_30_);fill:#cee5f5;} .st16{clip-path:url(#SVGID_32_);} .st17{clip-path:url(#SVGID_34_);fill:#FFFFFF;} .st18{clip-path:url(#SVGID_36_);} .st19{clip-path:url(#SVGID_38_);fill:#FFFFFF;}</style><defs><path id="SVGID_1_" d="M16 18h480v480H16z"/></defs><clipPath id="SVGID_2_"><use xlink:href="#SVGID_1_" overflow="visible"/></clipPath><g class="st0"><defs><path id="SVGID_3_" d="M-95-93h2417v702H-95z"/></defs><clipPath id="SVGID_4_"><use xlink:href="#SVGID_3_" overflow="visible"/></clipPath><path class="st1" d="M11 13h490v490H11z"/></g><defs><path id="SVGID_5_" d="M-95-93h2417v702H-95z"/></defs><clipPath id="SVGID_6_"><use xlink:href="#SVGID_5_" overflow="visible"/></clipPath><path class="st2 st3" d="M665.3 17.6h3.4L749.3 210H728l-12.9-31.9h-96.3L606.2 210h-19.9l79-192.4zM707.9 161l-33.6-84.8c-.9-2.2-1.8-4.7-2.7-7.3-.8-2.6-1.6-5.1-2.4-7.3-.7-2.6-1.5-5.3-2.2-8.1-.9 2.8-1.8 5.5-2.5 8.1-.7 2.2-1.5 4.7-2.4 7.3-.8 2.6-1.7 5.1-2.7 7.3L625.8 161h82.1zm95.7-141.4h20.2v172.5h89.9V210h-110V19.6zm166.4 0h20.4V210H970V19.6zm178 192.6c-13.4 0-26.1-2.4-38.1-7.1-11.9-4.8-22.3-11.4-31.1-20s-15.7-18.9-20.9-30.8c-5.1-11.9-7.7-25.1-7.7-39.5 0-14.4 2.6-27.5 7.7-39.5 5.1-11.9 12.1-22.2 20.9-30.8 8.8-8.6 19.1-15.3 31.1-20 11.9-4.8 24.6-7.1 38.1-7.1 34 0 59.2 12.2 75.6 36.7l-15.4 11.2c-6.2-9.1-14.3-16.4-24.4-21.8-10.1-5.4-22-8.1-35.8-8.1-11.2 0-21.5 2-30.8 6s-17.4 9.6-24.2 16.7c-6.8 7.1-12.1 15.5-16 25.1-3.8 9.6-5.7 20.2-5.7 31.6 0 11.4 1.9 22 5.7 31.6 3.8 9.6 9.1 18 16 25.1 6.8 7.1 14.9 12.7 24.2 16.7 9.3 4 19.6 6 30.8 6 14 0 26.2-2.8 36.7-8.4 10.5-5.6 19.1-13.4 26-23.5l15.7 10.9c-8.4 12.3-19.3 21.9-32.6 28.7-13.3 6.9-28.6 10.3-45.8 10.3zm193.5-194.6h3.4l80.6 192.4h-21.3l-12.9-31.9H1295l-12.6 31.9h-19.9l79-192.4zm42.6 143.4l-33.6-84.8c-.9-2.2-1.8-4.7-2.7-7.3s-1.6-5.1-2.4-7.3c-.7-2.6-1.5-5.3-2.2-8.1-.9 2.8-1.8 5.5-2.5 8.1-.7 2.2-1.5 4.7-2.4 7.3-.8 2.6-1.7 5.1-2.7 7.3L1302 161h82.1zm126.3-83.4c-1.5-1.5-3-3.3-4.5-5.3-1.5-2.1-2.9-4-4.2-5.9-1.5-2.1-3-4.2-4.5-6.4.2 2.6.5 5.2.8 7.8.2 2.2.4 4.6.6 7 .2 2.4.3 4.7.3 6.7V210h-19V17.6h3.4L1596.9 152c1.3 1.7 2.8 3.5 4.3 5.5 1.6 2 3 3.9 4.3 5.7 1.5 2.1 3 4.2 4.5 6.4-.4-2.6-.7-5.2-.8-7.8-.2-2.2-.3-4.6-.4-7-.1-2.4-.1-4.7-.1-6.7V19.6h18.8V212h-3.4L1510.4 77.6zm228.7-40.1h-58.5V19.6h137.2v17.9h-58.5V210h-20.2V37.5zM1871 19.6h115.9v17.9h-95.8v89h85.4v17.9h-85.4V192h99.7v18H1871V19.6zM595.9 286.6h122.6V321h-83.4v63H711v35h-75.9v58h-39.2V286.6zM892.1 477h-45.4l-31.4-48.2c-3.6.6-7.6.8-11.2.8h-13.4V477h-39.2V286.6h52.6c53.2 0 85.1 25.5 85.1 72 0 29.7-13.2 48.4-36.7 59.1l39.6 59.3zm-89-81.5c31.9 0 45.9-10.1 45.9-37S834.4 321 803.1 321h-12.3v74.5h12.3zM917 381.8c0-56.3 43.7-97.7 98.6-97.7 54.9 0 98.6 41.4 98.6 97.7 0 56.3-43.7 97.7-98.6 97.7-54.9 0-98.6-41.4-98.6-97.7zm156.8 0c0-35.6-23.5-62.7-58.2-62.7s-58.2 27.2-58.2 62.7c0 35.6 23.5 62.7 58.2 62.7s58.2-27.1 58.2-62.7zm130.2 6.7c-9.5-9-22.7-26-22.7-26s2.8 21 2.8 34.7V477h-36.7V284.9h3.9l96 90.2c9.2 8.7 22.4 26 22.4 26s-2.5-21.6-2.5-34.7v-79.8h36.7v192.1h-3.9l-96-90.2zm183.2-67.5h-54.3v-34.4h147.8V321h-54.3v156h-39.2V321zm122.3-34.4h126V321h-86.8v60.5h76.4v33.6h-76.4v27.4h90.7V477h-129.9V286.6zm222.9 101.9c-9.5-9-22.7-26-22.7-26s2.8 21 2.8 34.7V477h-36.7V284.9h3.9l96 90.2c9.2 8.7 22.4 26 22.4 26s-2.5-21.6-2.5-34.7v-79.8h36.7v192.1h-3.9l-96-90.2zm139.7-101.9h58.5c58.5 0 100.2 38.9 100.2 95.2 0 56.3-41.4 95.2-100.2 95.2h-58.5V286.6zm56.6 156c42.3 0 61.6-25.2 61.6-60.8 0-35.6-19.3-60.8-61.6-60.8h-17.4v121.5h17.4z"/><defs><path id="SVGID_7_" d="M124 287h88l29 29-24 56z"/></defs><clipPath id="SVGID_8_"><use xlink:href="#SVGID_7_" overflow="visible"/></clipPath><g class="st4"><defs><path id="SVGID_9_" d="M-95-93h2417v702H-95z"/></defs><clipPath id="SVGID_10_"><use xlink:href="#SVGID_9_" overflow="visible"/></clipPath><path class="st5" d="M119 282h127v95H119z"/></g><defs><path id="SVGID_11_" d="M241 145v107h-72z"/></defs><clipPath id="SVGID_12_"><use xlink:href="#SVGID_11_" overflow="visible"/></clipPath><g class="st6"><defs><path id="SVGID_13_" d="M-95-93h2417v702H-95z"/></defs><clipPath id="SVGID_14_"><use xlink:href="#SVGID_13_" overflow="visible"/></clipPath><path class="st7" d="M164 140h82v117h-82z"/></g><defs><path id="SVGID_15_" d="M105 316h136v56H70z"/></defs><clipPath id="SVGID_16_"><use xlink:href="#SVGID_15_" overflow="visible"/></clipPath><g class="st8"><defs><path id="SVGID_17_" d="M-95-93h2417v702H-95z"/></defs><clipPath id="SVGID_18_"><use xlink:href="#SVGID_17_" overflow="visible"/></clipPath><path class="st9" d="M65 311h181v66H65z"/></g><defs><path id="SVGID_19_" d="M159 231h82v56H124z"/></defs><clipPath id="SVGID_20_"><use xlink:href="#SVGID_19_" overflow="visible"/></clipPath><g class="st10"><defs><path id="SVGID_21_" d="M-95-93h2417v702H-95z"/></defs><clipPath id="SVGID_22_"><use xlink:href="#SVGID_21_" overflow="visible"/></clipPath><path class="st11" d="M119 226h127v66H119z"/></g><g><defs><path id="SVGID_23_" d="M388 230h-88l-29-29 24-56z"/></defs><clipPath id="SVGID_24_"><use xlink:href="#SVGID_23_" overflow="visible"/></clipPath><g class="st12"><defs><path id="SVGID_25_" d="M-95-93h2417v702H-95z"/></defs><clipPath id="SVGID_26_"><use xlink:href="#SVGID_25_" overflow="visible"/></clipPath><path class="st13" d="M266 140h127v95H266z"/></g></g><g><defs><path id="SVGID_27_" d="M271 372V265h72z"/></defs><clipPath id="SVGID_28_"><use xlink:href="#SVGID_27_" overflow="visible"/></clipPath><g class="st14"><defs><path id="SVGID_29_" d="M-95-93h2417v702H-95z"/></defs><clipPath id="SVGID_30_"><use xlink:href="#SVGID_29_" overflow="visible"/></clipPath><path class="st15" d="M266 260h82v117h-82z"/></g></g><g><defs><path id="SVGID_31_" d="M407 201H271v-56h171z"/></defs><clipPath id="SVGID_32_"><use xlink:href="#SVGID_31_" overflow="visible"/></clipPath><g class="st16"><defs><path id="SVGID_33_" d="M-95-93h2417v702H-95z"/></defs><clipPath id="SVGID_34_"><use xlink:href="#SVGID_33_" overflow="visible"/></clipPath><path class="st17" d="M266 140h181v66H266z"/></g></g><g><defs><path id="SVGID_35_" d="M353 286h-82v-56h117z"/></defs><clipPath id="SVGID_36_"><use xlink:href="#SVGID_35_" overflow="visible"/></clipPath><g class="st18"><defs><path id="SVGID_37_" d="M-95-93h2417v702H-95z"/></defs><clipPath id="SVGID_38_"><use xlink:href="#SVGID_37_" overflow="visible"/></clipPath><path class="st19" d="M266 225h127v66H266z"/></g></g></svg>