<svg version="1" xmlns="http://www.w3.org/2000/svg" width="640" height="640" viewBox="0 0 480.000000 480.000000"><path d="M1 240v240h479V0H1v240zm425.1-111.3c-.6 1-8.4 13.5-17.3 27.8l-16.4 26-25.5.5-25.6.5 15.8 14.4c12.7 11.5 15.6 14.7 14.9 16-.5.9-8.3 13.3-17.2 27.6l-16.4 26-12.6.5-12.7.5-22.9 34c-12.5 18.7-25.4 37.8-28.5 42.5l-5.7 8.5V212h29.5l-14.8-14.8-14.7-14.7V127h85.5c81.2 0 85.5.1 84.6 1.7zM226 198.5V269h-29.5l14.8 14.8 14.7 14.7V354h-85.5c-81.2 0-85.5-.1-84.6-1.7.6-1 8.4-13.5 17.3-27.8l16.4-26 25.5-.5 25.6-.5-15.8-14.4c-12.7-11.5-15.6-14.7-14.9-16 .5-.9 8.3-13.3 17.2-27.6l16.4-26 12.5-.3 12.5-.3 28.5-42.4c15.6-23.3 28.5-42.5 28.7-42.5.1 0 .2 31.7.2 70.5z"/></svg>